<svg width="182" height="33" viewBox="0 0 182 33" fill="none" xmlns="http://www.w3.org/2000/svg">
<path d="M14.4207 0.0403781C14.4328 0.0605672 14.453 0.0807562 14.4651 0.0807562C14.4732 0.0807562 14.4812 0.0605672 14.4812 0.0403781C14.4812 0.0161512 14.4611 0 14.4368 0C14.4167 0 14.4086 0.0161512 14.4207 0.0403781ZM25.2974 4.88979C24.4136 5.11187 23.784 5.20474 22.0889 5.3501C20.1718 5.51969 19.0014 5.85079 17.9682 6.52107C17.0319 7.13078 16.3256 8.12004 16.0794 9.16987C16.0068 9.48078 15.9342 10.3893 15.9342 10.9707C15.9342 11.2049 15.918 11.3947 15.8938 11.4068C15.8696 11.4189 15.6799 11.3664 15.466 11.2857C14.4005 10.89 13.1333 10.6598 11.979 10.6598C11.1193 10.6598 10.7682 10.6962 9.98122 10.8658C9.18615 11.0394 8.66553 11.2211 7.92292 11.5885C6.84534 12.1134 5.95744 12.7595 5.15027 13.5993C3.75385 15.057 3.02739 16.4622 2.61169 18.5174C2.49062 19.1069 2.47851 19.2361 2.46237 20.1245C2.44219 21.255 2.47851 21.6144 2.69645 22.4704C3.20497 24.4732 3.85878 25.6401 5.21484 26.9928C6.13906 27.9134 6.76866 28.3818 7.71709 28.8461C8.33458 29.149 8.85521 29.3266 9.83997 29.5729C11.2606 29.9323 12.4714 29.9363 14.1987 29.5931C15.4781 29.3387 17.04 28.5756 18.1055 27.6832C18.7593 27.1381 19.6149 26.1731 20.0952 25.4382C21.1485 23.8312 21.7297 21.6427 21.5844 19.8176C21.4996 18.7031 21.2413 17.516 20.9104 16.7165C20.7369 16.2845 20.2243 15.2993 19.9983 14.9439C19.6189 14.3625 18.727 13.3853 18.0853 12.8483C17.5929 12.4365 17.04 12.0327 16.7292 11.8671C16.6001 11.7985 16.483 11.7177 16.4709 11.6854C16.4427 11.6127 16.6525 11.2413 16.931 10.8658C17.6898 9.85226 18.8319 9.08911 20.8983 8.20483C21.2656 8.04736 21.7257 7.84547 21.9234 7.75664C22.1212 7.66377 22.2907 7.59916 22.3028 7.60724C22.3351 7.63954 21.4472 8.19676 20.4947 8.74186C19.5382 9.28697 18.7391 9.79573 18.3355 10.1107C17.831 10.5064 17.2418 11.1403 17.2781 11.2413C17.3064 11.3139 17.94 11.5199 18.3557 11.5926C18.7916 11.6693 19.7844 11.6572 20.2526 11.5683C20.7692 11.4714 21.4875 11.2332 21.9315 11.0111C23.3521 10.2964 24.4458 9.12949 25.2611 7.44976C25.6082 6.73911 25.7696 6.2465 25.923 5.42278C26.0683 4.67982 26.0804 4.69194 25.2974 4.88979ZM13.553 11.851C14.4005 11.9681 14.7032 12.1377 14.8041 12.5536C14.8889 12.9048 14.8485 13.0179 14.118 14.5765C13.9122 15.0085 13.5611 15.7798 13.331 16.2926C12.8507 17.3666 12.2898 18.5659 12.2131 18.691C12.1848 18.7395 12.1202 18.7879 12.0678 18.8041C11.866 18.8525 11.8054 18.7758 11.414 17.944C9.14983 13.1189 9.12965 13.0785 9.16194 12.703C9.2023 12.2063 9.58167 11.9923 10.7279 11.8146C11.2485 11.7339 12.8507 11.7541 13.553 11.851ZM7.95117 13.2158C8.03189 13.2642 8.13279 13.349 8.17718 13.4055C8.26194 13.5186 8.74624 14.52 9.85208 16.8821C10.2637 17.7583 10.6552 18.5901 10.7238 18.7354C10.9337 19.1715 10.8691 19.4219 10.5503 19.4219C10.4857 19.4219 9.41216 19.0867 8.16911 18.6789C6.92202 18.2671 5.63861 17.8471 5.30767 17.7421C4.98076 17.6372 4.65789 17.516 4.59331 17.4756C4.43995 17.3828 4.3108 17.1769 4.3108 17.0194C4.3108 16.5752 4.86775 15.5577 5.57 14.7178C6.07045 14.1162 6.84534 13.4217 7.26507 13.1915C7.45476 13.0906 7.76552 13.1027 7.95117 13.2158ZM16.7817 13.2036C17.1772 13.4055 18.2992 14.4796 18.7714 15.1095C19.0741 15.5133 19.3526 15.9655 19.5866 16.4339C19.7602 16.7811 19.7763 16.8296 19.7602 17.0476C19.744 17.2536 19.7239 17.3061 19.5987 17.4312C19.4656 17.5604 19.3485 17.6049 18.1095 17.9885C15.349 18.8404 14.1301 19.22 13.8395 19.3209C13.4844 19.4421 13.2705 19.4501 13.1776 19.3492C13.0243 19.1796 13.0445 19.115 13.5247 18.1459C13.779 17.6372 14.0978 16.975 14.2391 16.6762C14.7759 15.5173 15.7485 13.5388 15.8454 13.4136C15.8978 13.3369 15.9987 13.244 16.0714 13.1996C16.2409 13.0946 16.5718 13.0987 16.7817 13.2036ZM6.16327 19.0423C8.18929 19.6278 10.0095 20.1689 10.1749 20.2375C10.3888 20.3223 10.4292 20.5605 10.2557 20.7221C10.1386 20.827 9.731 21.1097 7.14803 22.8702C5.17852 24.2107 5.1543 24.2269 4.92022 24.2269C4.49242 24.2269 4.26237 23.9927 3.95968 23.2376C3.54802 22.2241 3.37448 21.033 3.46327 19.8418C3.50766 19.2644 3.57627 18.9656 3.71349 18.796C3.81842 18.6587 4.08076 18.5376 4.26641 18.5336C4.34309 18.5336 5.19466 18.7637 6.16327 19.0423ZM19.9822 18.578C20.2203 18.6426 20.4019 18.8324 20.4866 19.0948C20.5916 19.4421 20.5795 20.8795 20.4584 21.5377C20.2687 22.5835 19.8126 23.8514 19.5463 24.0573C19.3889 24.1825 19.179 24.239 18.9732 24.2148C18.7795 24.1946 18.8239 24.2228 15.3691 21.889C14.5377 21.3277 13.8072 20.819 13.7467 20.7624C13.6095 20.6373 13.5893 20.4031 13.7063 20.2981C13.7467 20.2617 14.1503 20.1245 14.6023 19.9952C16.6808 19.3896 19.1225 18.6789 19.3445 18.6143C19.631 18.5255 19.7723 18.5174 19.9822 18.578ZM11.2889 21.5902C11.3373 21.6306 11.3938 21.7355 11.414 21.8244C11.4382 21.9172 11.4543 23.2982 11.4543 25.0142C11.4543 28.0426 11.4543 28.0426 11.3413 28.2445C11.1113 28.6604 10.8086 28.721 9.99333 28.511C8.41934 28.1032 7.16821 27.4208 6.09466 26.3911C5.67493 25.9874 5.55385 25.7935 5.55385 25.523C5.55789 25.2646 5.63457 25.1233 5.87269 24.9254C6.07045 24.7639 6.23188 24.6508 8.24579 23.2861C8.86732 22.8621 9.6866 22.3049 10.0619 22.0465C10.4413 21.788 10.7763 21.5619 10.8086 21.5498C10.9418 21.5013 11.2041 21.5215 11.2889 21.5902ZM13.1615 21.5861C13.2826 21.6507 15.0301 22.8136 17.0037 24.1461C18.2629 24.9941 18.4364 25.1636 18.4364 25.519C18.4364 25.7895 18.3315 25.9631 17.94 26.3467C16.8745 27.3885 15.5992 28.1112 14.0777 28.5312C13.3956 28.721 13.101 28.7452 12.8911 28.62C12.6086 28.4545 12.4996 28.2728 12.4593 27.9134C12.4068 27.4531 12.4431 21.8324 12.4996 21.7315C12.6126 21.5215 12.9113 21.4569 13.1615 21.5861Z" fill="white"/>
<path d="M10.5262 8.27251C8.32562 8.55102 6.42789 9.34618 4.59072 10.7549C4.02141 11.1948 2.85046 12.3815 2.44265 12.9345C1.409 14.3311 0.754886 15.7438 0.318812 17.5158C0.0563599 18.5612 -0.0526588 19.8488 0.024058 20.9467C0.133077 22.4846 0.399567 23.6955 0.900245 24.9306C2.03081 27.7197 4.42114 30.1093 7.296 31.3323C8.69305 31.9256 10.1386 32.2485 11.6164 32.297C14.4872 32.3898 17.3176 31.4534 19.5707 29.6612C20.0391 29.2899 21.0646 28.2566 21.4401 27.7843C22.8574 25.9881 23.7013 23.9296 23.9557 21.649C24.0364 20.9063 24.0162 19.2272 23.9153 18.5854C23.7659 17.649 23.5155 16.7045 23.1966 15.8932C22.8009 14.88 22.0943 13.6691 21.4563 12.9063C21.0283 12.3977 20.8183 12.2847 20.4913 12.3735C20.1844 12.4542 19.9745 12.7811 20.0552 13.0556C20.0754 13.1202 20.2409 13.3704 20.4307 13.6086C21.6622 15.1828 22.3486 16.7812 22.6676 18.8276C22.7564 19.4088 22.7686 21.0678 22.6878 21.6531C22.3567 23.9861 21.3675 26.0285 19.7524 27.7036C18.0242 29.4957 16.0054 30.5331 13.4737 30.9246C13.1224 30.9771 12.7671 30.9973 12.0201 30.9973C10.9865 30.9973 10.6917 30.969 9.81958 30.7874C6.96491 30.194 4.44537 28.4624 2.90296 26.0245C2.13983 24.8257 1.66337 23.5461 1.39285 21.9921C1.31209 21.536 1.30402 21.3302 1.30402 20.3413C1.30402 19.1223 1.34036 18.759 1.5907 17.7176C2.24077 14.9729 4.04563 12.4986 6.44808 11.0576C7.94607 10.1575 9.29871 9.70542 11.0188 9.51975C11.9555 9.41884 12.86 9.47535 14.1601 9.70946C14.3055 9.73771 14.4751 9.74578 14.5356 9.73367C14.8465 9.65295 15.105 9.19684 14.9919 8.9264C14.9636 8.85374 14.8667 8.73265 14.7779 8.65193C14.6083 8.49854 14.4226 8.44607 13.5141 8.30883C12.9084 8.22003 11.1399 8.19582 10.5262 8.27251Z" fill="white"/>
<path d="M47.233 19.7273C47.233 21.2803 46.9489 22.6155 46.3807 23.733C45.8125 24.8456 45.0336 25.7027 44.044 26.304C43.0592 26.9006 41.9394 27.1989 40.6847 27.1989C39.4252 27.1989 38.3007 26.9006 37.3111 26.304C36.3262 25.7027 35.5497 24.8433 34.9815 23.7259C34.4134 22.6084 34.1293 21.2756 34.1293 19.7273C34.1293 18.1742 34.4134 16.8414 34.9815 15.7287C35.5497 14.6113 36.3262 13.7543 37.3111 13.1577C38.3007 12.5563 39.4252 12.2557 40.6847 12.2557C41.9394 12.2557 43.0592 12.5563 44.044 13.1577C45.0336 13.7543 45.8125 14.6113 46.3807 15.7287C46.9489 16.8414 47.233 18.1742 47.233 19.7273ZM45.0597 19.7273C45.0597 18.5436 44.8679 17.5469 44.4844 16.7372C44.1056 15.9228 43.5848 15.3073 42.9219 14.8906C42.2637 14.4692 41.518 14.2585 40.6847 14.2585C39.8466 14.2585 39.0985 14.4692 38.4403 14.8906C37.7822 15.3073 37.2614 15.9228 36.8778 16.7372C36.4991 17.5469 36.3097 18.5436 36.3097 19.7273C36.3097 20.911 36.4991 21.91 36.8778 22.7244C37.2614 23.5341 37.7822 24.1496 38.4403 24.571C39.0985 24.9877 39.8466 25.196 40.6847 25.196C41.518 25.196 42.2637 24.9877 42.9219 24.571C43.5848 24.1496 44.1056 23.5341 44.4844 22.7244C44.8679 21.91 45.0597 20.911 45.0597 19.7273ZM48.1987 27V16.0909H50.2512V17.8239H50.3648C50.5637 17.2367 50.9141 16.7751 51.416 16.4389C51.9226 16.098 52.4955 15.9276 53.1347 15.9276C53.2673 15.9276 53.4236 15.9323 53.6035 15.9418C53.7881 15.9512 53.9326 15.9631 54.0367 15.9773V18.0085C53.9515 17.9848 53.8 17.9588 53.5822 17.9304C53.3644 17.8973 53.1466 17.8807 52.9288 17.8807C52.4269 17.8807 51.9794 17.9872 51.5864 18.2003C51.1982 18.4086 50.8904 18.6998 50.6631 19.0739C50.4359 19.4432 50.3222 19.8646 50.3222 20.3381V27H48.1987ZM57.3515 27.2415C56.6602 27.2415 56.0352 27.1136 55.4765 26.858C54.9178 26.5975 54.4751 26.2211 54.1484 25.7287C53.8264 25.2363 53.6654 24.6326 53.6654 23.9176C53.6654 23.3021 53.7838 22.7955 54.0205 22.3977C54.2573 22 54.5769 21.6851 54.9793 21.4531C55.3818 21.2211 55.8316 21.0459 56.3288 20.9276C56.8259 20.8092 57.3326 20.7192 57.8486 20.6577C58.5021 20.5819 59.0324 20.5204 59.4396 20.473C59.8468 20.4209 60.1427 20.3381 60.3273 20.2244C60.512 20.1108 60.6043 19.9261 60.6043 19.6705V19.6207C60.6043 19.0005 60.4291 18.5199 60.0788 18.179C59.7331 17.8381 59.217 17.6676 58.5305 17.6676C57.8155 17.6676 57.2521 17.8262 56.8401 18.1435C56.4329 18.456 56.1512 18.804 55.995 19.1875L53.9992 18.733C54.236 18.0701 54.5816 17.535 55.0361 17.1278C55.4954 16.7159 56.0234 16.4176 56.62 16.233C57.2165 16.0436 57.8439 15.9489 58.5021 15.9489C58.9377 15.9489 59.3993 16.0009 59.887 16.1051C60.3794 16.2045 60.8387 16.3892 61.2648 16.6591C61.6957 16.929 62.0485 17.3149 62.3231 17.8168C62.5977 18.3139 62.735 18.9602 62.735 19.7557V27H60.6611V25.5085H60.5759C60.4386 25.7831 60.2326 26.053 59.958 26.3182C59.6834 26.5833 59.3307 26.8035 58.8998 26.9787C58.4689 27.1539 57.9528 27.2415 57.3515 27.2415ZM57.8131 25.5369C58.4003 25.5369 58.9022 25.4209 59.3188 25.1889C59.7402 24.9569 60.0598 24.6539 60.2776 24.2798C60.5002 23.901 60.6114 23.4962 60.6114 23.0653V21.6591C60.5357 21.7348 60.3889 21.8059 60.1711 21.8722C59.958 21.9337 59.7142 21.9882 59.4396 22.0355C59.1649 22.0781 58.8974 22.1184 58.637 22.1562C58.3766 22.1894 58.1588 22.2178 57.9836 22.2415C57.5717 22.2936 57.1952 22.3812 56.8543 22.5043C56.5182 22.6274 56.2483 22.8049 56.0447 23.0369C55.8458 23.2642 55.7464 23.5672 55.7464 23.946C55.7464 24.4716 55.9405 24.8693 56.3288 25.1392C56.717 25.4044 57.2118 25.5369 57.8131 25.5369ZM66.0871 20.5227V27H63.9635V16.0909H66.0018V17.8665H66.1368C66.3877 17.2888 66.7807 16.8248 67.3158 16.4744C67.8555 16.1241 68.535 15.9489 69.3541 15.9489C70.0975 15.9489 70.7485 16.1051 71.3072 16.4176C71.866 16.7254 72.2992 17.1847 72.607 17.7955C72.9147 18.4062 73.0686 19.1615 73.0686 20.0611V27H70.945V20.3168C70.945 19.526 70.7391 18.9081 70.3271 18.4631C69.9152 18.0133 69.3494 17.7884 68.6297 17.7884C68.1373 17.7884 67.6993 17.8949 67.3158 18.108C66.937 18.321 66.6363 18.6335 66.4138 19.0455C66.196 19.4527 66.0871 19.9451 66.0871 20.5227ZM78.8905 31.3182C78.024 31.3182 77.2783 31.2045 76.6533 30.9773C76.033 30.75 75.5264 30.4493 75.1334 30.0753C74.7404 29.7012 74.4468 29.2917 74.2527 28.8466L76.078 28.0938C76.2058 28.3021 76.3763 28.5223 76.5893 28.7543C76.8071 28.991 77.1007 29.1922 77.47 29.358C77.8441 29.5237 78.3247 29.6065 78.9118 29.6065C79.7167 29.6065 80.382 29.41 80.9075 29.017C81.4331 28.6288 81.6959 28.0085 81.6959 27.1562V25.0114H81.5609C81.4331 25.2434 81.2484 25.5014 81.007 25.7855C80.7702 26.0696 80.4435 26.3158 80.0268 26.5241C79.6102 26.7325 79.068 26.8366 78.4004 26.8366C77.5387 26.8366 76.7622 26.6354 76.0709 26.233C75.3843 25.8258 74.8398 25.2268 74.4374 24.4361C74.0396 23.6406 73.8408 22.6629 73.8408 21.5028C73.8408 20.3428 74.0373 19.3485 74.4303 18.5199C74.828 17.6913 75.3725 17.0568 76.0638 16.6165C76.7551 16.1714 77.5387 15.9489 78.4146 15.9489C79.0917 15.9489 79.6386 16.0625 80.0553 16.2898C80.4719 16.5123 80.7963 16.7727 81.0283 17.071C81.265 17.3693 81.4473 17.6321 81.5751 17.8594H81.7314V16.0909H83.8124V27.2415C83.8124 28.179 83.5946 28.9484 83.1589 29.5497C82.7233 30.151 82.1339 30.5961 81.3905 30.8849C80.6518 31.1738 79.8185 31.3182 78.8905 31.3182ZM78.8692 25.0753C79.48 25.0753 79.9961 24.9332 80.4175 24.6491C80.8436 24.3603 81.1656 23.9484 81.3834 23.4134C81.6059 22.8736 81.7172 22.2273 81.7172 21.4744C81.7172 20.7405 81.6083 20.0942 81.3905 19.5355C81.1727 18.9768 80.8531 18.5412 80.4317 18.2287C80.0103 17.9115 79.4894 17.7528 78.8692 17.7528C78.23 17.7528 77.6973 17.9186 77.2712 18.25C76.845 18.5767 76.5231 19.0218 76.3053 19.5852C76.0922 20.1487 75.9857 20.7784 75.9857 21.4744C75.9857 22.1894 76.0946 22.8168 76.3124 23.3565C76.5302 23.8963 76.8521 24.3177 77.2783 24.6207C77.7091 24.9238 78.2394 25.0753 78.8692 25.0753ZM89.7621 27.2202C88.6873 27.2202 87.7616 26.9905 86.9851 26.5312C86.2133 26.0672 85.6167 25.4162 85.1953 24.5781C84.7786 23.7353 84.5703 22.7481 84.5703 21.6165C84.5703 20.4991 84.7786 19.5142 85.1953 18.6619C85.6167 17.8097 86.2038 17.1444 86.9567 16.6662C87.7143 16.188 88.5997 15.9489 89.6129 15.9489C90.2285 15.9489 90.825 16.0507 91.4027 16.2543C91.9804 16.4579 92.4988 16.7775 92.9581 17.2131C93.4174 17.6487 93.7796 18.2145 94.0447 18.9105C94.3099 19.6018 94.4425 20.4422 94.4425 21.4318V22.1847H85.7706V20.5938H92.3615C92.3615 20.035 92.2479 19.5402 92.0206 19.1094C91.7933 18.6738 91.4737 18.3305 91.0618 18.0795C90.6546 17.8286 90.1764 17.7031 89.6271 17.7031C89.0305 17.7031 88.5097 17.8499 88.0646 18.1435C87.6243 18.4323 87.2834 18.8111 87.0419 19.2798C86.8052 19.7438 86.6868 20.2481 86.6868 20.7926V22.0355C86.6868 22.7647 86.8146 23.3849 87.0703 23.8963C87.3307 24.4077 87.6929 24.7983 88.157 25.0682C88.621 25.3333 89.1631 25.4659 89.7834 25.4659C90.1858 25.4659 90.5528 25.4091 90.8842 25.2955C91.2157 25.1771 91.5021 25.0019 91.7436 24.7699C91.9851 24.5379 92.1697 24.2514 92.2976 23.9105L94.3075 24.2727C94.1465 24.8646 93.8577 25.383 93.4411 25.8281C93.0291 26.2685 92.5107 26.6117 91.8857 26.858C91.2654 27.0994 90.5575 27.2202 89.7621 27.2202ZM106.995 16.2756C106.92 15.6032 106.607 15.0824 106.058 14.7131C105.509 14.339 104.817 14.152 103.984 14.152C103.387 14.152 102.871 14.2467 102.436 14.4361C102 14.6207 101.662 14.8764 101.42 15.2031C101.183 15.5251 101.065 15.892 101.065 16.304C101.065 16.6496 101.145 16.9479 101.306 17.1989C101.472 17.4498 101.688 17.6605 101.953 17.831C102.223 17.9967 102.511 18.1364 102.819 18.25C103.127 18.3589 103.423 18.4489 103.707 18.5199L105.127 18.8892C105.591 19.0028 106.067 19.1567 106.555 19.3509C107.043 19.545 107.495 19.8007 107.912 20.1179C108.328 20.4351 108.664 20.8281 108.92 21.2969C109.18 21.7656 109.311 22.3267 109.311 22.9801C109.311 23.804 109.098 24.5355 108.671 25.1747C108.25 25.8139 107.637 26.3182 106.832 26.6875C106.032 27.0568 105.063 27.2415 103.927 27.2415C102.838 27.2415 101.896 27.0687 101.1 26.723C100.305 26.3774 99.6823 25.8873 99.2325 25.2528C98.7827 24.6136 98.5341 23.8561 98.4868 22.9801H100.688C100.731 23.5057 100.902 23.9437 101.2 24.294C101.503 24.6397 101.889 24.8977 102.358 25.0682C102.831 25.2339 103.349 25.3168 103.913 25.3168C104.533 25.3168 105.085 25.2197 105.568 25.0256C106.055 24.8267 106.439 24.5521 106.718 24.2017C106.998 23.8466 107.137 23.4323 107.137 22.9588C107.137 22.5279 107.014 22.1752 106.768 21.9006C106.527 21.6259 106.197 21.3987 105.781 21.2188C105.369 21.0388 104.903 20.8802 104.382 20.7429L102.663 20.2741C101.498 19.9569 100.575 19.4905 99.893 18.875C99.216 18.2595 98.8774 17.4451 98.8774 16.4318C98.8774 15.5937 99.1047 14.8622 99.5592 14.2372C100.014 13.6122 100.629 13.1269 101.406 12.7812C102.182 12.4309 103.058 12.2557 104.034 12.2557C105.019 12.2557 105.887 12.4285 106.64 12.7741C107.398 13.1198 107.994 13.5956 108.43 14.2017C108.866 14.803 109.093 15.4943 109.112 16.2756H106.995ZM112.286 12.4545V27H110.163V12.4545H112.286ZM113.543 27V16.0909H115.667V27H113.543ZM114.616 14.4077C114.246 14.4077 113.929 14.2846 113.664 14.0384C113.404 13.7874 113.273 13.4891 113.273 13.1435C113.273 12.7931 113.404 12.4948 113.664 12.2486C113.929 11.9976 114.246 11.8722 114.616 11.8722C114.985 11.8722 115.3 11.9976 115.56 12.2486C115.825 12.4948 115.958 12.7931 115.958 13.1435C115.958 13.4891 115.825 13.7874 115.56 14.0384C115.3 14.2846 114.985 14.4077 114.616 14.4077ZM121.519 27.2202C120.463 27.2202 119.554 26.9811 118.792 26.5028C118.034 26.0199 117.452 25.3546 117.044 24.5071C116.637 23.6596 116.434 22.6889 116.434 21.5952C116.434 20.4872 116.642 19.5095 117.059 18.6619C117.475 17.8097 118.062 17.1444 118.82 16.6662C119.578 16.188 120.47 15.9489 121.498 15.9489C122.326 15.9489 123.065 16.1027 123.713 16.4105C124.362 16.7135 124.885 17.1397 125.283 17.6889C125.685 18.2382 125.925 18.8797 126 19.6136H123.934C123.82 19.1023 123.56 18.6619 123.152 18.2926C122.75 17.9233 122.21 17.7386 121.533 17.7386C120.941 17.7386 120.423 17.8949 119.978 18.2074C119.537 18.5152 119.194 18.9555 118.948 19.5284C118.702 20.0966 118.578 20.7689 118.578 21.5455C118.578 22.3409 118.699 23.0275 118.941 23.6051C119.182 24.1828 119.523 24.6302 119.963 24.9474C120.408 25.2647 120.932 25.4233 121.533 25.4233C121.935 25.4233 122.3 25.3499 122.627 25.2031C122.958 25.0516 123.235 24.8362 123.458 24.5568C123.685 24.2775 123.844 23.9413 123.934 23.5483H126C125.925 24.2538 125.695 24.8835 125.311 25.4375C124.928 25.9915 124.414 26.4271 123.77 26.7443C123.131 27.0616 122.381 27.2202 121.519 27.2202ZM131.373 27.2202C130.298 27.2202 129.373 26.9905 128.596 26.5312C127.824 26.0672 127.228 25.4162 126.806 24.5781C126.39 23.7353 126.181 22.7481 126.181 21.6165C126.181 20.4991 126.39 19.5142 126.806 18.6619C127.228 17.8097 127.815 17.1444 128.568 16.6662C129.325 16.188 130.211 15.9489 131.224 15.9489C131.839 15.9489 132.436 16.0507 133.014 16.2543C133.591 16.4579 134.11 16.7775 134.569 17.2131C135.028 17.6487 135.391 18.2145 135.656 18.9105C135.921 19.6018 136.053 20.4422 136.053 21.4318V22.1847H127.382V20.5938H133.972C133.972 20.035 133.859 19.5402 133.632 19.1094C133.404 18.6738 133.085 18.3305 132.673 18.0795C132.266 17.8286 131.787 17.7031 131.238 17.7031C130.641 17.7031 130.121 17.8499 129.676 18.1435C129.235 18.4323 128.894 18.8111 128.653 19.2798C128.416 19.7438 128.298 20.2481 128.298 20.7926V22.0355C128.298 22.7647 128.426 23.3849 128.681 23.8963C128.942 24.4077 129.304 24.7983 129.768 25.0682C130.232 25.3333 130.774 25.4659 131.394 25.4659C131.797 25.4659 132.164 25.4091 132.495 25.2955C132.827 25.1771 133.113 25.0019 133.355 24.7699C133.596 24.5379 133.781 24.2514 133.909 23.9105L135.918 24.2727C135.757 24.8646 135.469 25.383 135.052 25.8281C134.64 26.2685 134.122 26.6117 133.497 26.858C132.876 27.0994 132.168 27.2202 131.373 27.2202ZM145.268 27H141.007V12.4545H145.524C146.911 12.4545 148.097 12.7434 149.082 13.321C150.072 13.8987 150.829 14.7273 151.355 15.8068C151.88 16.8864 152.143 18.1813 152.143 19.6918C152.143 21.2164 151.873 22.5256 151.334 23.6193C150.798 24.7083 150.017 25.544 148.99 26.1264C147.967 26.7088 146.727 27 145.268 27ZM142.335 25.8068H145.19C146.44 25.8068 147.486 25.5606 148.329 25.0682C149.172 24.5758 149.804 23.8726 150.226 22.9588C150.647 22.045 150.858 20.956 150.858 19.6918C150.853 18.437 150.645 17.3575 150.233 16.4531C149.825 15.5488 149.219 14.8551 148.414 14.3722C147.614 13.8892 146.625 13.6477 145.446 13.6477H142.335V25.8068ZM157.74 27.2273C156.797 27.2273 155.964 26.9882 155.24 26.5099C154.52 26.0317 153.956 25.3712 153.549 24.5284C153.142 23.6809 152.938 22.7031 152.938 21.5952C152.938 20.4777 153.142 19.4953 153.549 18.6477C153.956 17.7955 154.52 17.1326 155.24 16.6591C155.964 16.1809 156.797 15.9418 157.74 15.9418C158.682 15.9418 159.513 16.1809 160.232 16.6591C160.952 17.1373 161.516 17.8002 161.923 18.6477C162.335 19.4953 162.541 20.4777 162.541 21.5952C162.541 22.7031 162.337 23.6809 161.93 24.5284C161.523 25.3712 160.957 26.0317 160.232 26.5099C159.513 26.9882 158.682 27.2273 157.74 27.2273ZM157.74 26.0696C158.497 26.0696 159.139 25.866 159.664 25.4588C160.19 25.0516 160.588 24.5095 160.857 23.8324C161.132 23.1553 161.269 22.4096 161.269 21.5952C161.269 20.7808 161.132 20.0327 160.857 19.3509C160.588 18.669 160.19 18.1222 159.664 17.7102C159.139 17.2983 158.497 17.0923 157.74 17.0923C156.987 17.0923 156.345 17.2983 155.815 17.7102C155.289 18.1222 154.889 18.669 154.615 19.3509C154.345 20.0327 154.21 20.7808 154.21 21.5952C154.21 22.4096 154.345 23.1553 154.615 23.8324C154.889 24.5095 155.289 25.0516 155.815 25.4588C156.34 25.866 156.982 26.0696 157.74 26.0696ZM167.977 27.2273C167.002 27.2273 166.152 26.9834 165.428 26.4957C164.708 26.008 164.149 25.3404 163.751 24.4929C163.354 23.6454 163.155 22.6795 163.155 21.5952C163.155 20.5014 163.356 19.5284 163.759 18.6761C164.166 17.8239 164.729 17.1562 165.449 16.6733C166.169 16.1856 167.004 15.9418 167.956 15.9418C168.685 15.9418 169.346 16.0838 169.938 16.3679C170.529 16.6473 171.017 17.0426 171.401 17.554C171.789 18.0606 172.033 18.6525 172.132 19.3295H170.854C170.721 18.714 170.402 18.1884 169.895 17.7528C169.393 17.3125 168.754 17.0923 167.977 17.0923C167.281 17.0923 166.666 17.2817 166.131 17.6605C165.596 18.0346 165.177 18.5578 164.874 19.2301C164.575 19.8977 164.426 20.6719 164.426 21.5526C164.426 22.438 164.573 23.2216 164.866 23.9034C165.16 24.5805 165.572 25.1108 166.102 25.4943C166.637 25.8778 167.262 26.0696 167.977 26.0696C168.46 26.0696 168.901 25.9796 169.298 25.7997C169.701 25.6151 170.037 25.3546 170.307 25.0185C170.581 24.6823 170.766 24.2822 170.861 23.8182H172.139C172.045 24.4763 171.81 25.0634 171.436 25.5795C171.067 26.0909 170.586 26.4934 169.994 26.7869C169.407 27.0805 168.735 27.2273 167.977 27.2273ZM180.578 18.4844L179.421 18.8111C179.307 18.4844 179.146 18.1884 178.938 17.9233C178.729 17.6581 178.457 17.4474 178.121 17.2912C177.789 17.1349 177.378 17.0568 176.885 17.0568C176.146 17.0568 175.54 17.232 175.067 17.5824C174.593 17.9328 174.357 18.3849 174.357 18.9389C174.357 19.4077 174.518 19.7888 174.84 20.0824C175.166 20.3712 175.668 20.6009 176.345 20.7713L177.993 21.1761C178.907 21.3987 179.591 21.7514 180.046 22.2344C180.505 22.7173 180.735 23.3234 180.735 24.0526C180.735 24.6681 180.564 25.215 180.223 25.6932C179.882 26.1714 179.406 26.5478 178.796 26.8224C178.19 27.0923 177.486 27.2273 176.686 27.2273C175.621 27.2273 174.743 26.9882 174.051 26.5099C173.36 26.027 172.917 25.331 172.723 24.4219L173.938 24.1236C174.094 24.7723 174.399 25.2623 174.854 25.5938C175.313 25.9252 175.917 26.0909 176.665 26.0909C177.503 26.0909 178.173 25.9039 178.675 25.5298C179.177 25.151 179.428 24.6776 179.428 24.1094C179.428 23.669 179.281 23.2997 178.987 23.0014C178.694 22.6984 178.249 22.4759 177.652 22.3338L175.869 21.9077C174.922 21.6804 174.222 21.3205 173.767 20.8281C173.313 20.3357 173.085 19.7249 173.085 18.9957C173.085 18.3944 173.249 17.8665 173.575 17.4119C173.902 16.9527 174.352 16.5928 174.925 16.3324C175.498 16.072 176.151 15.9418 176.885 15.9418C177.884 15.9418 178.682 16.169 179.279 16.6236C179.88 17.0734 180.313 17.6937 180.578 18.4844Z" fill="white"/>
</svg>
